PathFileType	4	(X/Y/Z)	C:/Users/beibeiliu/ov580/test_trc/User3\sequence.32_training_dense_left.trc
DataRate	CameraRate	NumFrames	NumMarkers	Units	OrigDataRate	OrigDataStartFrame	OrigNumFrames
120	120	11	19	mm	120	105	209
Frame#	Time	ThumbCMC			ThumbMCP			ThumbIP			ThumbTip			IndexMCP			IndexPIP			IndexTip			MiddleMCP			MiddlePIP			MiddleTip			RingMCP			RingPIP			RingTip			PinkyMCP			PinkyPIP			PinkyTip			BackHand1			BackHand2			BackHand3	
		X0	Y0	Z0	X1	Y1	Z1	X2	Y2	Z2	X3	Y3	Z3	X4	Y4	Z4	X5	Y5	Z5	X6	Y6	Z6	X7	Y7	Z7	X8	Y8	Z8	X9	Y9	Z9	X10	Y10	Z10	X11	Y11	Z11	X12	Y12	Z12	X13	Y13	Z13	X14	Y14	Z14	X15	Y15	Z15	X16	Y16	Z16	X17	Y17	Z17	X18	Y18	Z18	
104	0.866667	-211.223	7.73101	-4.39427	-184.876	24.2511	-21.0539	-156.635	30.8536	-32.4981	-132.172	11.0684	-31.3601	-157.998	-0.304712	-55.3766	-138.969	14.0344	-31.8859	-161.154	7.09273	-6.90408	-147.437	-24.9102	-53.8688	-123.613	-4.57176	-42.3026	-140.523	3.78174	-5.35467	-147.44	-45.6037	-49.3305	-127.876	-40.1098	-58.9052	-98.8533	-29.4735	-62.8654	-154.936	-59.0156	-25.0771	-135.963	-61.247	-41.2236	-116.084	-68.3149	-52.2785	-195.879	-55.8722	-17.522	-217.748	-56.1615	7.57574	-218.88	-23.7723	-18.647	
105	0.875	-220.935	2.42316	-9.84917	-203.362	21.472	-29.3747	-173.015	17.1132	-38.4043	-152.141	10.2624	-34.7261	-166.696	4.93571	-57.4793	-145.852	22.6403	-42.1958	-162.886	27.3968	-9.56037	-154.265	-14.901	-57.2979	-130.562	6.333	-48.7083	-142.391	19.4987	-11.465	-152.28	-38.0255	-45.4676	-127.134	-28.1847	-60.5076	-99.6615	-15.8658	-65.2494	-150.126	-54.3809	-23.9063	-133.722	-55.9915	-37.7963	-115.824	-55.6301	-51.1943	-196.541	-50.6709	-17.7893	-216.844	-54.9979	5.73391	-217.423	-30.1188	-21.0127	
106	0.883333	-231.581	2.77628	-13.2913	-214.332	23.0644	-34.0679	-181.536	20.5227	-43.5562	-156.168	10.0859	-37.8042	-171.94	7.31819	-61.1093	-156.648	29.8312	-45.9102	-169.338	31.2725	-15.1068	-155.843	-13.1727	-60.8978	-138.267	10.8729	-52.913	-147.345	23.7944	-15.2745	-154.976	-34.9604	-48.1721	-131.382	-26.8943	-59.5413	-107.475	-13.0239	-66.0806	-151.427	-49.3915	-29.2169	-133.085	-53.9017	-37.597	-111.164	-54.6751	-52.3582	-193.867	-52.2307	-17.9397	-216.363	-56.5441	6.83366	-225.589	-30.7334	-22.1702	
107	0.891667	-233.589	0.942977	-13.4041	-214.234	23.9109	-34.5175	-190.525	33.1214	-45.1073	-162.207	27.3176	-45.1244	-184.125	4.95568	-65.2219	-166.845	27.5742	-47.0844	-179.286	20.4943	-16.5949	-162.656	-15.426	-65.2258	-145.905	11.6527	-57.9815	-152.894	23.6932	-25.6187	-158.2	-37.4117	-52.7226	-136.898	-30.8236	-64.7647	-116.275	-12.1976	-75.228	-156.943	-51.276	-30.9036	-140.237	-52.2508	-42.4712	-120.909	-53.9807	-57.2547	-197.576	-55.2497	-18.5604	-218.334	-57.4387	6.08872	-229.733	-36.0705	-25.3155	
108	0.9	-237.856	0.147322	-16.1722	-217.758	21.7774	-34.2585	-194.638	35.1625	-48.5619	-168.907	30.8954	-48.3016	-190.904	1.30467	-69.6735	-174.499	24.048	-51.4555	-192.393	16.0133	-21.4383	-172.424	-18.9513	-72.6632	-153.327	7.85893	-64.3425	-163.518	21.04	-30.6813	-164.484	-42.2566	-60.5452	-145.92	-35.8057	-73.2348	-124.302	-16.3817	-82.9837	-162.618	-54.4707	-35.1082	-145.083	-58.7418	-49.8185	-133.321	-60.8529	-64.402	-205.322	-56.1528	-21.9586	-222.219	-59.0988	2.23141	-232.358	-37.1386	-25.7515	
109	0.908333	-239.815	-1.54506	-19.8113	-224.316	23.742	-39.2142	-198.471	30.2158	-52.5636	-171.26	21.8418	-55.0469	-196.896	-4.87759	-73.9741	-182.756	17.7984	-61.0147	-196.141	13.1741	-31.0202	-185.16	-27.5093	-74.9701	-162.997	0.90058	-73.9958	-169.233	10.8407	-39.3857	-177.792	-48.8914	-65.1472	-156.601	-40.6012	-83.8784	-136.796	-26.387	-91.5175	-170.881	-60.7058	-40.4213	-159.361	-63.0221	-58.9527	-143.753	-70.3176	-73.0611	-211.657	-58.4816	-19.2846	-228.172	-60.085	4.61568	-242.026	-39.4443	-23.5726	
110	0.916667	-246.074	0.0661977	-16.5569	-226.694	21.3556	-43.6908	-202.681	24.6936	-59.9434	-180.159	11.947	-60.3783	-210.088	-11.8698	-79.2109	-189.985	10.1926	-66.2522	-201.406	8.73228	-37.8028	-196.653	-32.5973	-82.4592	-173.771	-8.58849	-81.8667	-181.716	3.98042	-43.1579	-193.006	-55.3634	-69.7241	-174.661	-51.6278	-91.0166	-151.871	-36.6176	-103.495	-184.236	-63.7827	-45.4503	-173.891	-70.2047	-64.0643	-162.434	-75.3406	-82.2239	-217.519	-60.9236	-19.4547	-229.749	-60.275	7.34043	-248.839	-39.7457	-21.654	
111	0.925	-246.604	0.633075	-15.3882	-231.729	19.5373	-38.8252	-211.078	22.2683	-62.3865	-187.2	10.0472	-69.6663	-224.174	-15.582	-81.3974	-200.449	5.00508	-76.133	-207.908	2.68191	-41.9028	-214.391	-37.5171	-86.4903	-189.379	-18.0993	-90.4501	-188.004	-4.52006	-51.636	-207.623	-61.5908	-71.7551	-194.191	-61.0746	-96.2474	-174.498	-47.2816	-113.136	-196.534	-69.7625	-44.7144	-191.974	-79.6451	-65.7857	-183.001	-87.7391	-91.3803	-226.634	-60.8373	-24.2021	-234.482	-57.3979	7.9046	-251.722	-38.9801	-15.1121	
112	0.933333	-246.874	6.77749	-11.0086	-231.186	20.434	-41.5959	-214.164	18.7401	-65.427	-192.766	2.19786	-75.6721	-238.78	-16.4111	-80.2701	-211.837	4.10802	-78.9612	-213.703	1.09184	-44.1969	-229.932	-43.2421	-82.2527	-207.836	-21.6548	-96.3485	-195.502	-8.24536	-61.2192	-227.471	-63.4625	-73.125	-218.82	-64.5272	-98.0465	-201.299	-53.8843	-118.901	-215.324	-73.6903	-50.248	-215.507	-80.99	-67.814	-210.917	-89.0829	-94.207	-235.665	-59.9519	-16.9175	-238.758	-54.8483	9.03633	-258.744	-34.2764	-12.1146	
113	0.941667	-241.804	11.1118	-11.2069	-228.108	21.6547	-38.116	-214.095	18.4915	-67.4441	-199.424	-4.62837	-80.0961	-249.126	-12.3983	-76.0058	-217.441	0.610274	-79.9625	-214.763	0.25706	-46.243	-243.643	-38.4554	-84.347	-220.843	-22.1673	-96.2246	-201.377	-15.1933	-57.7581	-248.055	-58.6466	-72.0734	-242.993	-59.2779	-96.9536	-224.377	-55.5097	-123.568	-232.641	-72.5179	-47.5027	-238.67	-83.8756	-71.0127	-238.311	-89.9885	-95.7354	-249.771	-53.5579	-17.3666	-243.439	-53.719	14.0449	-261.586	-23.9307	-4.35214	
114	0.95	-234.307	10.7825	-3.7264	-222.963	19.7708	-40.0024	-214.261	14.5969	-68.6863	-206.032	-6.7353	-78.3824	-256.317	-4.13056	-72.8709	-223.682	1.61064	-79.9342	-213.195	-3.32166	-51.2672	-258.081	-26.3075	-77.2103	-226.729	-21.0721	-91.5734	-207.388	-14.8643	-62.9423	-264.161	-52.212	-69.4086	-262.432	-51.2929	-92.6322	-250.21	-49.4568	-119.562	-249.26	-65.5169	-45.5881	-260.012	-72.5518	-67.2335	-263.029	-81.7635	-91.0997	-255.33	-48.9729	-10.2277	-248.959	-50.5598	13.4549	-262.21	-19.0666	1.51167	
